<svg xmlns="http://www.w3.org/2000/svg" width="500" height="196" viewBox="0 0 500 196">
  <metadata><?xpacket begin="﻿" id="W5M0MpCehiHzreSzNTczkc9d"?>
<x:xmpmeta xmlns:x="adobe:ns:meta/" x:xmptk="Adobe XMP Core 5.6-c142 79.160924, 2017/07/13-01:06:39        ">
   <rdf:RDF xmlns:rdf="http://www.w3.org/1999/02/22-rdf-syntax-ns#">
      <rdf:Description rdf:about=""/>
   </rdf:RDF>
</x:xmpmeta>
                                                                                                    
                                                                                                    
                                                                                                    
                                                                                                    
                                                                                                    
                                                                                                    
                                                                                                    
                                                                                                    
                                                                                                    
                                                                                                    
                                                                                                    
                                                                                                    
                                                                                                    
                                                                                                    
                                                                                                    
                                                                                                    
                                                                                                    
                                                                                                    
                                                                                                    
                                                                                                    
                           
<?xpacket end="w"?></metadata>
<defs>
    <style>
      .cls-1 {
        fill: #1e2022;
        fill-rule: evenodd;
      }
    </style>
  </defs>
  <g id="アートボード_1" data-name="アートボード 1">
    <path id="ブロシル" class="cls-1" d="M0.265,245.4H83.937V287L13.978,356.958H53.257l58.57-58.571V217.505H0.265V245.4Zm111.562-41.836V161.723H83.937v41.836h27.891Zm41.836,0V161.723H125.772v41.836h27.891Zm83.858,153.4V217.505H125.958V356.958H237.521ZM153.849,245.4H209.63v83.672H153.849V245.4Zm210.035,13.946H335.993v44.392l-25.334,25.334H252.322v27.891h69.726l41.836-41.836V259.341ZM308.1,245.4v-27.89H252.322V245.4H308.1Zm0,41.836v-27.89H252.322v27.89H308.1Zm69.057-69.726V321.4l-15.108,35.561H392.5l12.551-29.75v-109.7H377.16ZM425.5,356.958H464.55l35.1-35.1V282.583l-46.252,46.484V217.505H425.5V356.958Z" transform="translate(0 -161)"/>
    <path id="SIRU" class="cls-1" d="M264.4,168.365v10.546l7.031,7.032H282.5l2.988,2.988v4.57L282.5,196.49h-8.086l-2.989-2.989v-2.226H264.4v5.215l7.031,7.031h14.063l7.031-7.031V185.943l-7.031-7.032H274.417l-2.989-2.988v-4.57l2.989-2.988H282.5l2.988,2.988v2.226h7.031v-5.214l-7.031-7.032H271.428Zm37.688,35.156V161.333h-7.032v42.188h7.032Zm2.531-42.188v42.188h7.031V185.943h6.387l8.789,17.578h7.734l-8.789-17.637,6.973-6.973V168.365l-7.031-7.032H304.616Zm18.105,7.032,2.989,2.988v4.57l-2.989,2.988H311.647V168.365h11.074Zm33.645-7.032V193.5l-2.988,2.989h-8.086L342.3,193.5V161.333h-7.031V196.49l7.031,7.031h14.063l7.031-7.031V161.333h-7.031Z" transform="translate(0 -161)"/>
    <path id="BRO" class="cls-1" d="M162.516,161.4v42.188h21.093l7.032-7.031V186.006l-3.516-3.516,3.516-3.516V168.428l-7.032-7.032H162.516Zm18.105,7.032,2.988,2.988v4.57l-2.988,2.988H169.547V168.428h11.074Zm-11.074,17.578h11.074l2.988,2.988v4.57l-2.988,2.989H169.547V186.006Zm23.625-24.61v42.188H200.2V186.006h6.387l8.789,17.578h7.734l-8.789-17.637,6.973-6.973V168.428l-7.031-7.032H193.172Zm18.1,7.032,2.989,2.988v4.57l-2.989,2.988H200.2V168.428h11.074Zm12.551,0v28.125l7.031,7.031h14.063l7.031-7.031V168.428l-7.031-7.032H230.859Zm7.031,2.988,2.989-2.988h8.086l2.988,2.988v22.148l-2.988,2.989h-8.086l-2.989-2.989V171.416Z" transform="translate(0 -161)"/>
  </g>
</svg>
